<mxfile host="app.diagrams.net" agent="Mozilla/5.0 (Windows NT 10.0; Win64; x64) AppleWebKit/537.36 (KHTML, like Gecko) Chrome/132.0.0.0 Safari/537.36" version="26.0.11">
  <diagram name="Halaman-1" id="Rh9S0X4lbpFFFX4t3hqS">
    <mxGraphModel dx="1526" dy="861" grid="1" gridSize="10" guides="1" tooltips="1" connect="1" arrows="1" fold="1" page="1" pageScale="1" pageWidth="827" pageHeight="1169" math="0" shadow="0">
      <root>
        <mxCell id="0" />
        <mxCell id="1" parent="0" />
        <mxCell id="FP82QV8_bXtGrvNH5roQ-3" style="edgeStyle=orthogonalEdgeStyle;rounded=0;orthogonalLoop=1;jettySize=auto;html=1;entryX=0.5;entryY=0;entryDx=0;entryDy=0;" parent="1" source="FP82QV8_bXtGrvNH5roQ-1" target="FP82QV8_bXtGrvNH5roQ-2" edge="1">
          <mxGeometry relative="1" as="geometry" />
        </mxCell>
        <mxCell id="FP82QV8_bXtGrvNH5roQ-1" value="START" style="ellipse;whiteSpace=wrap;html=1;" parent="1" vertex="1">
          <mxGeometry x="354" y="50" width="96" height="50" as="geometry" />
        </mxCell>
        <mxCell id="FP82QV8_bXtGrvNH5roQ-8" style="edgeStyle=orthogonalEdgeStyle;rounded=0;orthogonalLoop=1;jettySize=auto;html=1;entryX=0.5;entryY=0;entryDx=0;entryDy=0;" parent="1" source="FP82QV8_bXtGrvNH5roQ-2" target="FP82QV8_bXtGrvNH5roQ-6" edge="1">
          <mxGeometry relative="1" as="geometry" />
        </mxCell>
        <mxCell id="FP82QV8_bXtGrvNH5roQ-2" value="Dataset" style="rounded=1;whiteSpace=wrap;html=1;" parent="1" vertex="1">
          <mxGeometry x="354" y="120" width="98" height="40" as="geometry" />
        </mxCell>
        <mxCell id="FP82QV8_bXtGrvNH5roQ-24" style="edgeStyle=orthogonalEdgeStyle;rounded=0;orthogonalLoop=1;jettySize=auto;html=1;" parent="1" source="FP82QV8_bXtGrvNH5roQ-6" target="FP82QV8_bXtGrvNH5roQ-19" edge="1">
          <mxGeometry relative="1" as="geometry" />
        </mxCell>
        <mxCell id="FP82QV8_bXtGrvNH5roQ-6" value="" style="rounded=1;whiteSpace=wrap;html=1;dashed=1;" parent="1" vertex="1">
          <mxGeometry x="258" y="185" width="290" height="130" as="geometry" />
        </mxCell>
        <mxCell id="FP82QV8_bXtGrvNH5roQ-9" value="Stemming" style="rounded=1;whiteSpace=wrap;html=1;" parent="1" vertex="1">
          <mxGeometry x="290" y="260" width="98" height="40" as="geometry" />
        </mxCell>
        <mxCell id="FP82QV8_bXtGrvNH5roQ-16" style="edgeStyle=orthogonalEdgeStyle;rounded=0;orthogonalLoop=1;jettySize=auto;html=1;" parent="1" source="FP82QV8_bXtGrvNH5roQ-10" target="FP82QV8_bXtGrvNH5roQ-9" edge="1">
          <mxGeometry relative="1" as="geometry" />
        </mxCell>
        <mxCell id="FP82QV8_bXtGrvNH5roQ-10" value="Stopword" style="rounded=1;whiteSpace=wrap;html=1;" parent="1" vertex="1">
          <mxGeometry x="420" y="260" width="98" height="40" as="geometry" />
        </mxCell>
        <mxCell id="FP82QV8_bXtGrvNH5roQ-15" style="edgeStyle=orthogonalEdgeStyle;rounded=0;orthogonalLoop=1;jettySize=auto;html=1;" parent="1" source="FP82QV8_bXtGrvNH5roQ-11" target="FP82QV8_bXtGrvNH5roQ-10" edge="1">
          <mxGeometry relative="1" as="geometry" />
        </mxCell>
        <mxCell id="FP82QV8_bXtGrvNH5roQ-11" value="Slangword" style="rounded=1;whiteSpace=wrap;html=1;" parent="1" vertex="1">
          <mxGeometry x="420" y="198" width="98" height="40" as="geometry" />
        </mxCell>
        <mxCell id="FP82QV8_bXtGrvNH5roQ-13" style="edgeStyle=orthogonalEdgeStyle;rounded=0;orthogonalLoop=1;jettySize=auto;html=1;" parent="1" source="FP82QV8_bXtGrvNH5roQ-12" target="FP82QV8_bXtGrvNH5roQ-11" edge="1">
          <mxGeometry relative="1" as="geometry" />
        </mxCell>
        <mxCell id="FP82QV8_bXtGrvNH5roQ-12" value="Normalization" style="rounded=1;whiteSpace=wrap;html=1;" parent="1" vertex="1">
          <mxGeometry x="290" y="198" width="98" height="40" as="geometry" />
        </mxCell>
        <mxCell id="FP82QV8_bXtGrvNH5roQ-17" value="Data Pre-Processing" style="text;html=1;align=center;verticalAlign=middle;resizable=0;points=[];autosize=1;strokeColor=none;fillColor=none;rotation=90;" parent="1" vertex="1">
          <mxGeometry x="500" y="235" width="130" height="30" as="geometry" />
        </mxCell>
        <mxCell id="FP82QV8_bXtGrvNH5roQ-19" value="" style="rounded=1;whiteSpace=wrap;html=1;dashed=1;" parent="1" vertex="1">
          <mxGeometry x="217" y="373" width="373" height="130" as="geometry" />
        </mxCell>
        <mxCell id="FP82QV8_bXtGrvNH5roQ-21" value="Cleaned Dataset" style="text;html=1;align=center;verticalAlign=middle;resizable=0;points=[];autosize=1;fillColor=default;" parent="1" vertex="1">
          <mxGeometry x="348.5" y="326" width="110" height="30" as="geometry" />
        </mxCell>
        <mxCell id="FP82QV8_bXtGrvNH5roQ-40" style="edgeStyle=orthogonalEdgeStyle;rounded=0;orthogonalLoop=1;jettySize=auto;html=1;entryX=0.5;entryY=1;entryDx=0;entryDy=0;exitX=0.5;exitY=0;exitDx=0;exitDy=0;" parent="1" source="FP82QV8_bXtGrvNH5roQ-28" target="FP82QV8_bXtGrvNH5roQ-31" edge="1">
          <mxGeometry relative="1" as="geometry">
            <Array as="points">
              <mxPoint x="289" y="450" />
              <mxPoint x="403" y="450" />
            </Array>
          </mxGeometry>
        </mxCell>
        <mxCell id="FP82QV8_bXtGrvNH5roQ-47" style="edgeStyle=orthogonalEdgeStyle;rounded=0;orthogonalLoop=1;jettySize=auto;html=1;" parent="1" source="FP82QV8_bXtGrvNH5roQ-28" target="FP82QV8_bXtGrvNH5roQ-46" edge="1">
          <mxGeometry relative="1" as="geometry" />
        </mxCell>
        <mxCell id="FP82QV8_bXtGrvNH5roQ-28" value="Data Train" style="rounded=1;whiteSpace=wrap;html=1;" parent="1" vertex="1">
          <mxGeometry x="240" y="473" width="98" height="20" as="geometry" />
        </mxCell>
        <mxCell id="FP82QV8_bXtGrvNH5roQ-42" style="edgeStyle=orthogonalEdgeStyle;rounded=0;orthogonalLoop=1;jettySize=auto;html=1;entryX=0.5;entryY=1;entryDx=0;entryDy=0;" parent="1" source="FP82QV8_bXtGrvNH5roQ-29" target="FP82QV8_bXtGrvNH5roQ-31" edge="1">
          <mxGeometry relative="1" as="geometry" />
        </mxCell>
        <mxCell id="FP82QV8_bXtGrvNH5roQ-48" style="edgeStyle=orthogonalEdgeStyle;rounded=0;orthogonalLoop=1;jettySize=auto;html=1;entryX=0.5;entryY=0;entryDx=0;entryDy=0;" parent="1" source="FP82QV8_bXtGrvNH5roQ-29" target="FP82QV8_bXtGrvNH5roQ-46" edge="1">
          <mxGeometry relative="1" as="geometry" />
        </mxCell>
        <mxCell id="FP82QV8_bXtGrvNH5roQ-29" value="Data Val" style="rounded=1;whiteSpace=wrap;html=1;" parent="1" vertex="1">
          <mxGeometry x="354" y="473" width="98" height="20" as="geometry" />
        </mxCell>
        <mxCell id="FP82QV8_bXtGrvNH5roQ-39" style="edgeStyle=orthogonalEdgeStyle;rounded=0;orthogonalLoop=1;jettySize=auto;html=1;entryX=0.5;entryY=1;entryDx=0;entryDy=0;exitX=0.5;exitY=0;exitDx=0;exitDy=0;" parent="1" source="FP82QV8_bXtGrvNH5roQ-30" target="FP82QV8_bXtGrvNH5roQ-31" edge="1">
          <mxGeometry relative="1" as="geometry">
            <Array as="points">
              <mxPoint x="519" y="450" />
              <mxPoint x="403" y="450" />
            </Array>
          </mxGeometry>
        </mxCell>
        <mxCell id="FP82QV8_bXtGrvNH5roQ-66" style="edgeStyle=orthogonalEdgeStyle;rounded=0;orthogonalLoop=1;jettySize=auto;html=1;entryX=1;entryY=0.5;entryDx=0;entryDy=0;exitX=0.5;exitY=1;exitDx=0;exitDy=0;" parent="1" source="FP82QV8_bXtGrvNH5roQ-30" target="FP82QV8_bXtGrvNH5roQ-63" edge="1">
          <mxGeometry relative="1" as="geometry" />
        </mxCell>
        <mxCell id="FP82QV8_bXtGrvNH5roQ-30" value="Data Test" style="rounded=1;whiteSpace=wrap;html=1;" parent="1" vertex="1">
          <mxGeometry x="470" y="473" width="98" height="20" as="geometry" />
        </mxCell>
        <mxCell id="FP82QV8_bXtGrvNH5roQ-31" value="indoBERT Tokenizing" style="rounded=1;whiteSpace=wrap;html=1;" parent="1" vertex="1">
          <mxGeometry x="353" y="387" width="100" height="40" as="geometry" />
        </mxCell>
        <mxCell id="FP82QV8_bXtGrvNH5roQ-35" value="Data Splitting" style="text;html=1;align=center;verticalAlign=middle;resizable=0;points=[];autosize=1;strokeColor=none;fillColor=none;rotation=90;" parent="1" vertex="1">
          <mxGeometry x="560" y="423" width="90" height="30" as="geometry" />
        </mxCell>
        <mxCell id="FP82QV8_bXtGrvNH5roQ-52" style="edgeStyle=orthogonalEdgeStyle;rounded=0;orthogonalLoop=1;jettySize=auto;html=1;entryX=0.5;entryY=0;entryDx=0;entryDy=0;" parent="1" source="FP82QV8_bXtGrvNH5roQ-46" target="FP82QV8_bXtGrvNH5roQ-51" edge="1">
          <mxGeometry relative="1" as="geometry" />
        </mxCell>
        <mxCell id="FP82QV8_bXtGrvNH5roQ-46" value="Pre-Trained" style="rounded=1;whiteSpace=wrap;html=1;" parent="1" vertex="1">
          <mxGeometry x="297" y="546" width="98" height="40" as="geometry" />
        </mxCell>
        <mxCell id="FP82QV8_bXtGrvNH5roQ-49" value="" style="rounded=1;whiteSpace=wrap;html=1;dashed=1;fillColor=none;" parent="1" vertex="1">
          <mxGeometry x="210" y="607" width="258.75" height="90" as="geometry" />
        </mxCell>
        <mxCell id="FP82QV8_bXtGrvNH5roQ-65" style="edgeStyle=orthogonalEdgeStyle;rounded=0;orthogonalLoop=1;jettySize=auto;html=1;entryX=0;entryY=0.5;entryDx=0;entryDy=0;" parent="1" source="FP82QV8_bXtGrvNH5roQ-51" target="FP82QV8_bXtGrvNH5roQ-63" edge="1">
          <mxGeometry relative="1" as="geometry" />
        </mxCell>
        <mxCell id="FP82QV8_bXtGrvNH5roQ-51" value="Training Model" style="rounded=1;whiteSpace=wrap;html=1;" parent="1" vertex="1">
          <mxGeometry x="297" y="667" width="98" height="20" as="geometry" />
        </mxCell>
        <mxCell id="FP82QV8_bXtGrvNH5roQ-53" value="&lt;font style=&quot;font-size: 10px;&quot;&gt;indoBERT Modelling&lt;/font&gt;" style="text;html=1;align=center;verticalAlign=middle;resizable=0;points=[];autosize=1;strokeColor=none;fillColor=none;rotation=0;" parent="1" vertex="1">
          <mxGeometry x="210" y="604" width="110" height="30" as="geometry" />
        </mxCell>
        <mxCell id="FP82QV8_bXtGrvNH5roQ-56" value="&lt;p style=&quot;line-height: 50%;&quot;&gt;&lt;font style=&quot;font-size: 8px;&quot;&gt;Fine-tuning&lt;/font&gt;&lt;/p&gt;" style="text;html=1;align=center;verticalAlign=middle;resizable=0;points=[];autosize=1;fillColor=default;strokeWidth=0;" parent="1" vertex="1">
          <mxGeometry x="316" y="614" width="60" height="40" as="geometry" />
        </mxCell>
        <mxCell id="FP82QV8_bXtGrvNH5roQ-68" style="edgeStyle=orthogonalEdgeStyle;rounded=0;orthogonalLoop=1;jettySize=auto;html=1;entryX=0.5;entryY=0;entryDx=0;entryDy=0;" parent="1" source="FP82QV8_bXtGrvNH5roQ-63" target="FP82QV8_bXtGrvNH5roQ-67" edge="1">
          <mxGeometry relative="1" as="geometry" />
        </mxCell>
        <mxCell id="FP82QV8_bXtGrvNH5roQ-63" value="Model Evaluation" style="rounded=1;whiteSpace=wrap;html=1;" parent="1" vertex="1">
          <mxGeometry x="366" y="724" width="134" height="40" as="geometry" />
        </mxCell>
        <mxCell id="FP82QV8_bXtGrvNH5roQ-67" value="END" style="ellipse;whiteSpace=wrap;html=1;" parent="1" vertex="1">
          <mxGeometry x="385" y="791" width="96" height="50" as="geometry" />
        </mxCell>
        <mxCell id="rMDRcAtH7lMO4UtLbahO-1" style="edgeStyle=orthogonalEdgeStyle;rounded=0;orthogonalLoop=1;jettySize=auto;html=1;entryX=0.489;entryY=0.016;entryDx=0;entryDy=0;entryPerimeter=0;" parent="1" source="rMDRcAtH7lMO4UtLbahO-2" target="rMDRcAtH7lMO4UtLbahO-4" edge="1">
          <mxGeometry relative="1" as="geometry" />
        </mxCell>
        <mxCell id="rMDRcAtH7lMO4UtLbahO-2" value="START" style="ellipse;whiteSpace=wrap;html=1;" parent="1" vertex="1">
          <mxGeometry x="994" y="42.5" width="96" height="50" as="geometry" />
        </mxCell>
        <mxCell id="rMDRcAtH7lMO4UtLbahO-3" style="edgeStyle=orthogonalEdgeStyle;rounded=0;orthogonalLoop=1;jettySize=auto;html=1;entryX=0.5;entryY=0;entryDx=0;entryDy=0;" parent="1" source="rMDRcAtH7lMO4UtLbahO-4" target="rMDRcAtH7lMO4UtLbahO-6" edge="1">
          <mxGeometry relative="1" as="geometry" />
        </mxCell>
        <mxCell id="rMDRcAtH7lMO4UtLbahO-4" value="Dataset" style="rounded=1;whiteSpace=wrap;html=1;" parent="1" vertex="1">
          <mxGeometry x="994" y="112.5" width="98" height="27.5" as="geometry" />
        </mxCell>
        <mxCell id="rMDRcAtH7lMO4UtLbahO-5" style="edgeStyle=orthogonalEdgeStyle;rounded=0;orthogonalLoop=1;jettySize=auto;html=1;" parent="1" source="rMDRcAtH7lMO4UtLbahO-6" target="rMDRcAtH7lMO4UtLbahO-15" edge="1">
          <mxGeometry relative="1" as="geometry" />
        </mxCell>
        <mxCell id="rMDRcAtH7lMO4UtLbahO-6" value="" style="rounded=1;whiteSpace=wrap;html=1;dashed=1;" parent="1" vertex="1">
          <mxGeometry x="908" y="167.5" width="270" height="122.5" as="geometry" />
        </mxCell>
        <mxCell id="rMDRcAtH7lMO4UtLbahO-7" value="Stemming" style="rounded=1;whiteSpace=wrap;html=1;" parent="1" vertex="1">
          <mxGeometry x="930" y="242.5" width="98" height="27.5" as="geometry" />
        </mxCell>
        <mxCell id="rMDRcAtH7lMO4UtLbahO-8" style="edgeStyle=orthogonalEdgeStyle;rounded=0;orthogonalLoop=1;jettySize=auto;html=1;" parent="1" source="rMDRcAtH7lMO4UtLbahO-9" target="rMDRcAtH7lMO4UtLbahO-7" edge="1">
          <mxGeometry relative="1" as="geometry" />
        </mxCell>
        <mxCell id="rMDRcAtH7lMO4UtLbahO-9" value="Stopword" style="rounded=1;whiteSpace=wrap;html=1;" parent="1" vertex="1">
          <mxGeometry x="1060" y="242.5" width="98" height="27.5" as="geometry" />
        </mxCell>
        <mxCell id="rMDRcAtH7lMO4UtLbahO-10" style="edgeStyle=orthogonalEdgeStyle;rounded=0;orthogonalLoop=1;jettySize=auto;html=1;" parent="1" source="rMDRcAtH7lMO4UtLbahO-11" target="rMDRcAtH7lMO4UtLbahO-9" edge="1">
          <mxGeometry relative="1" as="geometry" />
        </mxCell>
        <mxCell id="rMDRcAtH7lMO4UtLbahO-11" value="Slangword" style="rounded=1;whiteSpace=wrap;html=1;" parent="1" vertex="1">
          <mxGeometry x="1060" y="180.5" width="98" height="29.5" as="geometry" />
        </mxCell>
        <mxCell id="rMDRcAtH7lMO4UtLbahO-12" style="edgeStyle=orthogonalEdgeStyle;rounded=0;orthogonalLoop=1;jettySize=auto;html=1;" parent="1" source="rMDRcAtH7lMO4UtLbahO-13" target="rMDRcAtH7lMO4UtLbahO-11" edge="1">
          <mxGeometry relative="1" as="geometry" />
        </mxCell>
        <mxCell id="rMDRcAtH7lMO4UtLbahO-13" value="Normalization" style="rounded=1;whiteSpace=wrap;html=1;" parent="1" vertex="1">
          <mxGeometry x="930" y="180.5" width="98" height="29.5" as="geometry" />
        </mxCell>
        <mxCell id="rMDRcAtH7lMO4UtLbahO-14" value="Data Pre-Processing" style="text;html=1;align=center;verticalAlign=middle;resizable=0;points=[];autosize=1;strokeColor=none;fillColor=none;rotation=90;" parent="1" vertex="1">
          <mxGeometry x="1126" y="213.5" width="130" height="30" as="geometry" />
        </mxCell>
        <mxCell id="rMDRcAtH7lMO4UtLbahO-15" value="" style="rounded=1;whiteSpace=wrap;html=1;dashed=1;" parent="1" vertex="1">
          <mxGeometry x="857" y="344.5" width="373" height="94.5" as="geometry" />
        </mxCell>
        <mxCell id="rMDRcAtH7lMO4UtLbahO-16" value="Cleaned Dataset" style="text;html=1;align=center;verticalAlign=middle;resizable=0;points=[];autosize=1;fillColor=default;" parent="1" vertex="1">
          <mxGeometry x="988.5" y="298.5" width="110" height="30" as="geometry" />
        </mxCell>
        <mxCell id="rMDRcAtH7lMO4UtLbahO-18" style="edgeStyle=orthogonalEdgeStyle;rounded=0;orthogonalLoop=1;jettySize=auto;html=1;entryX=0.5;entryY=0;entryDx=0;entryDy=0;" parent="1" source="rMDRcAtH7lMO4UtLbahO-19" target="rMDRcAtH7lMO4UtLbahO-32" edge="1">
          <mxGeometry relative="1" as="geometry">
            <mxPoint x="986" y="470" as="targetPoint" />
            <Array as="points">
              <mxPoint x="929" y="420" />
              <mxPoint x="986" y="420" />
            </Array>
          </mxGeometry>
        </mxCell>
        <mxCell id="rMDRcAtH7lMO4UtLbahO-19" value="Data Train" style="rounded=1;whiteSpace=wrap;html=1;" parent="1" vertex="1">
          <mxGeometry x="880" y="379.5" width="98" height="20" as="geometry" />
        </mxCell>
        <mxCell id="rMDRcAtH7lMO4UtLbahO-21" style="edgeStyle=orthogonalEdgeStyle;rounded=0;orthogonalLoop=1;jettySize=auto;html=1;entryX=0.5;entryY=0;entryDx=0;entryDy=0;" parent="1" source="rMDRcAtH7lMO4UtLbahO-22" target="rMDRcAtH7lMO4UtLbahO-32" edge="1">
          <mxGeometry relative="1" as="geometry">
            <mxPoint x="986" y="470" as="targetPoint" />
            <Array as="points">
              <mxPoint x="1043" y="420" />
              <mxPoint x="986" y="420" />
            </Array>
          </mxGeometry>
        </mxCell>
        <mxCell id="rMDRcAtH7lMO4UtLbahO-22" value="Data Val" style="rounded=1;whiteSpace=wrap;html=1;" parent="1" vertex="1">
          <mxGeometry x="994" y="379.5" width="98" height="20" as="geometry" />
        </mxCell>
        <mxCell id="rMDRcAtH7lMO4UtLbahO-24" style="edgeStyle=orthogonalEdgeStyle;rounded=0;orthogonalLoop=1;jettySize=auto;html=1;entryX=1;entryY=0.5;entryDx=0;entryDy=0;exitX=0.5;exitY=1;exitDx=0;exitDy=0;" parent="1" source="rMDRcAtH7lMO4UtLbahO-25" target="rMDRcAtH7lMO4UtLbahO-36" edge="1">
          <mxGeometry relative="1" as="geometry" />
        </mxCell>
        <mxCell id="rMDRcAtH7lMO4UtLbahO-25" value="Data Test" style="rounded=1;whiteSpace=wrap;html=1;" parent="1" vertex="1">
          <mxGeometry x="1111" y="379.5" width="98" height="20" as="geometry" />
        </mxCell>
        <mxCell id="rMDRcAtH7lMO4UtLbahO-27" value="Data Splitting" style="text;html=1;align=center;verticalAlign=middle;resizable=0;points=[];autosize=1;strokeColor=none;fillColor=none;rotation=90;" parent="1" vertex="1">
          <mxGeometry x="1198" y="376.5" width="90" height="30" as="geometry" />
        </mxCell>
        <mxCell id="rMDRcAtH7lMO4UtLbahO-30" value="" style="rounded=1;whiteSpace=wrap;html=1;dashed=1;fillColor=none;" parent="1" vertex="1">
          <mxGeometry x="860" y="455" width="248.75" height="85" as="geometry" />
        </mxCell>
        <mxCell id="rMDRcAtH7lMO4UtLbahO-31" style="edgeStyle=orthogonalEdgeStyle;rounded=0;orthogonalLoop=1;jettySize=auto;html=1;entryX=0;entryY=0.5;entryDx=0;entryDy=0;" parent="1" source="rMDRcAtH7lMO4UtLbahO-32" target="rMDRcAtH7lMO4UtLbahO-36" edge="1">
          <mxGeometry relative="1" as="geometry" />
        </mxCell>
        <mxCell id="rMDRcAtH7lMO4UtLbahO-32" value="Training Model" style="rounded=1;whiteSpace=wrap;html=1;" parent="1" vertex="1">
          <mxGeometry x="937" y="483.5" width="98" height="20" as="geometry" />
        </mxCell>
        <mxCell id="rMDRcAtH7lMO4UtLbahO-33" value="&lt;font style=&quot;font-size: 10px;&quot;&gt;Fine-tuning&lt;/font&gt;" style="text;html=1;align=center;verticalAlign=middle;resizable=0;points=[];autosize=1;strokeColor=none;fillColor=none;rotation=0;" parent="1" vertex="1">
          <mxGeometry x="860" y="450.5" width="70" height="30" as="geometry" />
        </mxCell>
        <mxCell id="rMDRcAtH7lMO4UtLbahO-35" style="edgeStyle=orthogonalEdgeStyle;rounded=0;orthogonalLoop=1;jettySize=auto;html=1;entryX=0.5;entryY=0;entryDx=0;entryDy=0;" parent="1" source="rMDRcAtH7lMO4UtLbahO-36" target="rMDRcAtH7lMO4UtLbahO-37" edge="1">
          <mxGeometry relative="1" as="geometry" />
        </mxCell>
        <mxCell id="rMDRcAtH7lMO4UtLbahO-36" value="Model Evaluation" style="rounded=1;whiteSpace=wrap;html=1;" parent="1" vertex="1">
          <mxGeometry x="1006" y="560.5" width="134" height="31.5" as="geometry" />
        </mxCell>
        <mxCell id="rMDRcAtH7lMO4UtLbahO-37" value="END" style="ellipse;whiteSpace=wrap;html=1;" parent="1" vertex="1">
          <mxGeometry x="1025" y="617.5" width="96" height="50" as="geometry" />
        </mxCell>
        <mxCell id="rMDRcAtH7lMO4UtLbahO-38" value="&lt;span style=&quot;color: rgb(0, 0, 0); font-family: Helvetica; font-size: 10px; font-style: normal; font-variant-ligatures: normal; font-variant-caps: normal; font-weight: 400; letter-spacing: normal; orphans: 2; text-align: center; text-indent: 0px; text-transform: none; widows: 2; word-spacing: 0px; -webkit-text-stroke-width: 0px; white-space: nowrap; background-color: rgb(251, 251, 251); text-decoration-thickness: initial; text-decoration-style: initial; text-decoration-color: initial; display: inline !important; float: none;&quot;&gt;indoBERT Tokenization&lt;/span&gt;" style="text;whiteSpace=wrap;html=1;" parent="1" vertex="1">
          <mxGeometry x="862" y="344.5" width="120" height="40" as="geometry" />
        </mxCell>
        <mxCell id="rMDRcAtH7lMO4UtLbahO-40" value="&lt;span style=&quot;font-size: 10px;&quot;&gt;IndoBERT Modelling&lt;/span&gt;" style="text;html=1;align=center;verticalAlign=middle;resizable=0;points=[];autosize=1;strokeColor=none;fillColor=none;rotation=90;" parent="1" vertex="1">
          <mxGeometry x="1066" y="481.5" width="110" height="30" as="geometry" />
        </mxCell>
        <mxCell id="rMDRcAtH7lMO4UtLbahO-43" style="edgeStyle=orthogonalEdgeStyle;rounded=0;orthogonalLoop=1;jettySize=auto;html=1;entryX=0;entryY=0.5;entryDx=0;entryDy=0;" parent="1" source="rMDRcAtH7lMO4UtLbahO-44" target="rMDRcAtH7lMO4UtLbahO-46" edge="1">
          <mxGeometry relative="1" as="geometry">
            <mxPoint x="770" y="993.25" as="targetPoint" />
          </mxGeometry>
        </mxCell>
        <mxCell id="rMDRcAtH7lMO4UtLbahO-44" value="Dataset" style="rounded=1;whiteSpace=wrap;html=1;" parent="1" vertex="1">
          <mxGeometry x="649" y="1005" width="98" height="27.5" as="geometry" />
        </mxCell>
        <mxCell id="rMDRcAtH7lMO4UtLbahO-45" style="edgeStyle=orthogonalEdgeStyle;rounded=0;orthogonalLoop=1;jettySize=auto;html=1;" parent="1" source="rMDRcAtH7lMO4UtLbahO-46" target="rMDRcAtH7lMO4UtLbahO-55" edge="1">
          <mxGeometry relative="1" as="geometry" />
        </mxCell>
        <mxCell id="rMDRcAtH7lMO4UtLbahO-46" value="" style="rounded=1;whiteSpace=wrap;html=1;dashed=1;" parent="1" vertex="1">
          <mxGeometry x="770" y="958" width="270" height="122.5" as="geometry" />
        </mxCell>
        <mxCell id="rMDRcAtH7lMO4UtLbahO-47" value="Stemming" style="rounded=1;whiteSpace=wrap;html=1;" parent="1" vertex="1">
          <mxGeometry x="792" y="1033" width="98" height="27.5" as="geometry" />
        </mxCell>
        <mxCell id="rMDRcAtH7lMO4UtLbahO-48" style="edgeStyle=orthogonalEdgeStyle;rounded=0;orthogonalLoop=1;jettySize=auto;html=1;" parent="1" source="rMDRcAtH7lMO4UtLbahO-49" target="rMDRcAtH7lMO4UtLbahO-47" edge="1">
          <mxGeometry relative="1" as="geometry" />
        </mxCell>
        <mxCell id="rMDRcAtH7lMO4UtLbahO-49" value="Stopword" style="rounded=1;whiteSpace=wrap;html=1;" parent="1" vertex="1">
          <mxGeometry x="922" y="1033" width="98" height="27.5" as="geometry" />
        </mxCell>
        <mxCell id="rMDRcAtH7lMO4UtLbahO-50" style="edgeStyle=orthogonalEdgeStyle;rounded=0;orthogonalLoop=1;jettySize=auto;html=1;" parent="1" source="rMDRcAtH7lMO4UtLbahO-51" target="rMDRcAtH7lMO4UtLbahO-49" edge="1">
          <mxGeometry relative="1" as="geometry" />
        </mxCell>
        <mxCell id="rMDRcAtH7lMO4UtLbahO-51" value="Slangword" style="rounded=1;whiteSpace=wrap;html=1;" parent="1" vertex="1">
          <mxGeometry x="922" y="971" width="98" height="29.5" as="geometry" />
        </mxCell>
        <mxCell id="rMDRcAtH7lMO4UtLbahO-52" style="edgeStyle=orthogonalEdgeStyle;rounded=0;orthogonalLoop=1;jettySize=auto;html=1;" parent="1" source="rMDRcAtH7lMO4UtLbahO-53" target="rMDRcAtH7lMO4UtLbahO-51" edge="1">
          <mxGeometry relative="1" as="geometry" />
        </mxCell>
        <mxCell id="rMDRcAtH7lMO4UtLbahO-53" value="Normalization" style="rounded=1;whiteSpace=wrap;html=1;" parent="1" vertex="1">
          <mxGeometry x="792" y="971" width="98" height="29.5" as="geometry" />
        </mxCell>
        <mxCell id="rMDRcAtH7lMO4UtLbahO-54" value="Data Pre-Processing" style="text;html=1;align=center;verticalAlign=middle;resizable=0;points=[];autosize=1;strokeColor=none;fillColor=none;rotation=0;" parent="1" vertex="1">
          <mxGeometry x="840" y="932" width="130" height="30" as="geometry" />
        </mxCell>
        <mxCell id="rMDRcAtH7lMO4UtLbahO-55" value="" style="rounded=1;whiteSpace=wrap;html=1;dashed=1;" parent="1" vertex="1">
          <mxGeometry x="1065.5" y="972" width="373" height="94.5" as="geometry" />
        </mxCell>
        <mxCell id="rMDRcAtH7lMO4UtLbahO-57" style="edgeStyle=orthogonalEdgeStyle;rounded=0;orthogonalLoop=1;jettySize=auto;html=1;entryX=0.5;entryY=0;entryDx=0;entryDy=0;exitX=0.5;exitY=1;exitDx=0;exitDy=0;" parent="1" source="rMDRcAtH7lMO4UtLbahO-58" target="rMDRcAtH7lMO4UtLbahO-66" edge="1">
          <mxGeometry relative="1" as="geometry">
            <mxPoint x="547" y="1397.5" as="targetPoint" />
            <Array as="points">
              <mxPoint x="1138" y="1100" />
              <mxPoint x="1200" y="1100" />
            </Array>
            <mxPoint x="1049.5" y="1027" as="sourcePoint" />
          </mxGeometry>
        </mxCell>
        <mxCell id="rMDRcAtH7lMO4UtLbahO-58" value="Data Train" style="rounded=1;whiteSpace=wrap;html=1;" parent="1" vertex="1">
          <mxGeometry x="1088.5" y="1007" width="98" height="20" as="geometry" />
        </mxCell>
        <mxCell id="rMDRcAtH7lMO4UtLbahO-59" style="edgeStyle=orthogonalEdgeStyle;rounded=0;orthogonalLoop=1;jettySize=auto;html=1;entryX=0.5;entryY=0;entryDx=0;entryDy=0;" parent="1" source="rMDRcAtH7lMO4UtLbahO-60" target="rMDRcAtH7lMO4UtLbahO-66" edge="1">
          <mxGeometry relative="1" as="geometry">
            <mxPoint x="635" y="1397.5" as="targetPoint" />
            <Array as="points">
              <mxPoint x="1252" y="1100" />
              <mxPoint x="1200" y="1100" />
            </Array>
          </mxGeometry>
        </mxCell>
        <mxCell id="rMDRcAtH7lMO4UtLbahO-60" value="Data Val" style="rounded=1;whiteSpace=wrap;html=1;" parent="1" vertex="1">
          <mxGeometry x="1202.5" y="1007" width="98" height="20" as="geometry" />
        </mxCell>
        <mxCell id="rMDRcAtH7lMO4UtLbahO-61" style="edgeStyle=orthogonalEdgeStyle;rounded=0;orthogonalLoop=1;jettySize=auto;html=1;entryX=1;entryY=0.5;entryDx=0;entryDy=0;exitX=0.5;exitY=1;exitDx=0;exitDy=0;" parent="1" source="rMDRcAtH7lMO4UtLbahO-62" target="rMDRcAtH7lMO4UtLbahO-69" edge="1">
          <mxGeometry relative="1" as="geometry">
            <Array as="points">
              <mxPoint x="1369" y="1129" />
              <mxPoint x="1369" y="1246" />
            </Array>
          </mxGeometry>
        </mxCell>
        <mxCell id="rMDRcAtH7lMO4UtLbahO-62" value="Data Test" style="rounded=1;whiteSpace=wrap;html=1;" parent="1" vertex="1">
          <mxGeometry x="1319.5" y="1007" width="98" height="20" as="geometry" />
        </mxCell>
        <mxCell id="rMDRcAtH7lMO4UtLbahO-63" value="Data Splitting" style="text;html=1;align=center;verticalAlign=middle;resizable=0;points=[];autosize=1;strokeColor=none;fillColor=none;rotation=0;" parent="1" vertex="1">
          <mxGeometry x="1206.5" y="946" width="90" height="30" as="geometry" />
        </mxCell>
        <mxCell id="rMDRcAtH7lMO4UtLbahO-64" value="" style="rounded=1;whiteSpace=wrap;html=1;dashed=1;fillColor=none;" parent="1" vertex="1">
          <mxGeometry x="1074" y="1130.5" width="248.75" height="75.5" as="geometry" />
        </mxCell>
        <mxCell id="rMDRcAtH7lMO4UtLbahO-65" style="edgeStyle=orthogonalEdgeStyle;rounded=0;orthogonalLoop=1;jettySize=auto;html=1;entryX=0;entryY=0.5;entryDx=0;entryDy=0;" parent="1" source="rMDRcAtH7lMO4UtLbahO-66" target="rMDRcAtH7lMO4UtLbahO-69" edge="1">
          <mxGeometry relative="1" as="geometry" />
        </mxCell>
        <mxCell id="rMDRcAtH7lMO4UtLbahO-66" value="Training Model" style="rounded=1;whiteSpace=wrap;html=1;" parent="1" vertex="1">
          <mxGeometry x="1151" y="1159" width="98" height="20" as="geometry" />
        </mxCell>
        <mxCell id="rMDRcAtH7lMO4UtLbahO-67" value="&lt;font style=&quot;font-size: 10px;&quot;&gt;Fine-tuning&lt;/font&gt;" style="text;html=1;align=center;verticalAlign=middle;resizable=0;points=[];autosize=1;strokeColor=none;fillColor=none;rotation=0;" parent="1" vertex="1">
          <mxGeometry x="1074" y="1126" width="70" height="30" as="geometry" />
        </mxCell>
        <mxCell id="rMDRcAtH7lMO4UtLbahO-69" value="Model Evaluation" style="rounded=1;whiteSpace=wrap;html=1;" parent="1" vertex="1">
          <mxGeometry x="1220" y="1230" width="134" height="31.5" as="geometry" />
        </mxCell>
        <mxCell id="rMDRcAtH7lMO4UtLbahO-71" value="&lt;span style=&quot;color: rgb(0, 0, 0); font-family: Helvetica; font-size: 10px; font-style: normal; font-variant-ligatures: normal; font-variant-caps: normal; font-weight: 400; letter-spacing: normal; orphans: 2; text-align: center; text-indent: 0px; text-transform: none; widows: 2; word-spacing: 0px; -webkit-text-stroke-width: 0px; white-space: nowrap; background-color: rgb(251, 251, 251); text-decoration-thickness: initial; text-decoration-style: initial; text-decoration-color: initial; display: inline !important; float: none;&quot;&gt;indoBERT Tokenization&lt;/span&gt;" style="text;whiteSpace=wrap;html=1;" parent="1" vertex="1">
          <mxGeometry x="1070.5" y="972" width="120" height="40" as="geometry" />
        </mxCell>
        <mxCell id="rMDRcAtH7lMO4UtLbahO-72" value="&lt;span style=&quot;font-size: 10px;&quot;&gt;IndoBERT Modelling&lt;/span&gt;" style="text;html=1;align=center;verticalAlign=middle;resizable=0;points=[];autosize=1;strokeColor=none;fillColor=none;rotation=0;" parent="1" vertex="1">
          <mxGeometry x="1212.75" y="1103.5" width="110" height="30" as="geometry" />
        </mxCell>
        <mxCell id="UkURuy6Hivtn6hIGwWs8-2" value="Start" style="text;html=1;align=center;verticalAlign=middle;resizable=0;points=[];autosize=1;strokeColor=none;fillColor=none;" vertex="1" parent="1">
          <mxGeometry x="671" y="979" width="50" height="30" as="geometry" />
        </mxCell>
        <mxCell id="UkURuy6Hivtn6hIGwWs8-3" value="End" style="text;html=1;align=center;verticalAlign=middle;resizable=0;points=[];autosize=1;strokeColor=none;fillColor=none;" vertex="1" parent="1">
          <mxGeometry x="1267" y="1257" width="40" height="30" as="geometry" />
        </mxCell>
      </root>
    </mxGraphModel>
  </diagram>
</mxfile>
